%TF.GenerationSoftware,KiCad,Pcbnew,7.0.9*%
%TF.CreationDate,2024-01-08T12:14:10-08:00*%
%TF.ProjectId,Relay_PCB_1,52656c61-795f-4504-9342-5f312e6b6963,rev?*%
%TF.SameCoordinates,Original*%
%TF.FileFunction,Legend,Top*%
%TF.FilePolarity,Positive*%
%FSLAX46Y46*%
G04 Gerber Fmt 4.6, Leading zero omitted, Abs format (unit mm)*
G04 Created by KiCad (PCBNEW 7.0.9) date 2024-01-08 12:14:10*
%MOMM*%
%LPD*%
G01*
G04 APERTURE LIST*
%ADD10C,0.100000*%
G04 APERTURE END LIST*
D10*
%TO.C,*%
X164025000Y-104140000D02*
X172025000Y-104140000D01*
X172025000Y-104140000D02*
X172025000Y-93140000D01*
X172025000Y-93140000D02*
X164025000Y-93140000D01*
X164025000Y-93140000D02*
X164025000Y-104140000D01*
X164025000Y-90840000D02*
X172025000Y-90840000D01*
X172025000Y-90840000D02*
X172025000Y-79840000D01*
X172025000Y-79840000D02*
X164025000Y-79840000D01*
X164025000Y-79840000D02*
X164025000Y-90840000D01*
X163975000Y-77040000D02*
X171975000Y-77040000D01*
X171975000Y-77040000D02*
X171975000Y-66040000D01*
X171975000Y-66040000D02*
X163975000Y-66040000D01*
X163975000Y-66040000D02*
X163975000Y-77040000D01*
X154685000Y-80566000D02*
X146685000Y-80566000D01*
X146685000Y-80566000D02*
X146685000Y-86566000D01*
X146685000Y-86566000D02*
X154685000Y-86566000D01*
X154685000Y-86566000D02*
X154685000Y-80566000D01*
X148515000Y-57786000D02*
X159515000Y-57786000D01*
X159515000Y-57786000D02*
X159515000Y-65786000D01*
X159515000Y-65786000D02*
X148515000Y-65786000D01*
X148515000Y-65786000D02*
X148515000Y-57786000D01*
X147500000Y-101195000D02*
X158500000Y-101195000D01*
X158500000Y-101195000D02*
X158500000Y-109195000D01*
X158500000Y-109195000D02*
X147500000Y-109195000D01*
X147500000Y-109195000D02*
X147500000Y-101195000D01*
X145415000Y-89154000D02*
X137415000Y-89154000D01*
X137415000Y-89154000D02*
X137415000Y-95154000D01*
X137415000Y-95154000D02*
X145415000Y-95154000D01*
X145415000Y-95154000D02*
X145415000Y-89154000D01*
X145415000Y-79316000D02*
X138915000Y-79316000D01*
X138915000Y-79316000D02*
X138915000Y-87816000D01*
X138915000Y-87816000D02*
X145415000Y-87816000D01*
X145415000Y-87816000D02*
X145415000Y-79316000D01*
X145415000Y-71930000D02*
X137415000Y-71930000D01*
X137415000Y-71930000D02*
X137415000Y-77930000D01*
X137415000Y-77930000D02*
X145415000Y-77930000D01*
X145415000Y-77930000D02*
X145415000Y-71930000D01*
X137541000Y-79248000D02*
X131041000Y-79248000D01*
X131041000Y-79248000D02*
X131041000Y-87748000D01*
X131041000Y-87748000D02*
X137541000Y-87748000D01*
X137541000Y-87748000D02*
X137541000Y-79248000D01*
X135890000Y-57786000D02*
X146890000Y-57786000D01*
X146890000Y-57786000D02*
X146890000Y-65786000D01*
X146890000Y-65786000D02*
X135890000Y-65786000D01*
X135890000Y-65786000D02*
X135890000Y-57786000D01*
X134375000Y-101195000D02*
X145375000Y-101195000D01*
X145375000Y-101195000D02*
X145375000Y-109195000D01*
X145375000Y-109195000D02*
X134375000Y-109195000D01*
X134375000Y-109195000D02*
X134375000Y-101195000D01*
X123450000Y-57770000D02*
X134450000Y-57770000D01*
X134450000Y-57770000D02*
X134450000Y-65770000D01*
X134450000Y-65770000D02*
X123450000Y-65770000D01*
X123450000Y-65770000D02*
X123450000Y-57770000D01*
X121300000Y-101245000D02*
X132300000Y-101245000D01*
X132300000Y-101245000D02*
X132300000Y-109245000D01*
X132300000Y-109245000D02*
X121300000Y-109245000D01*
X121300000Y-109245000D02*
X121300000Y-101245000D01*
%TD*%
M02*
