M48
; DRILL file {KiCad 7.0.9} date Tue Dec 26 14:09:22 2023
; FORMAT={-:-/ absolute / metric / decimal}
; #@! TF.CreationDate,2023-12-26T14:09:22-08:00
; #@! TF.GenerationSoftware,Kicad,Pcbnew,7.0.9
; #@! TF.FileFunction,Plated,1,2,PTH
FMAT,2
METRIC
; #@! TA.AperFunction,Plated,PTH,ComponentDrill
T1C1.500
; #@! TA.AperFunction,Plated,PTH,ComponentDrill
T2C2.000
%
G90
G05
T1
X127.107Y-61.776
X127.357Y-105.326
X133.607Y-61.776
X133.857Y-105.326
X138.232Y-61.726
X138.482Y-105.276
X144.732Y-61.726
X144.982Y-105.276
X149.082Y-61.726
X149.332Y-105.276
X155.582Y-61.726
X155.832Y-105.276
X167.882Y-75.11
X167.882Y-81.61
X167.882Y-86.11
X167.882Y-92.61
T2
X134.307Y-83.426
X141.357Y-74.851
X141.457Y-92.176
X142.157Y-83.451
X150.707Y-83.426
T0
M30
